<svg width="544" height="456" viewBox="0 0 544 456" fill="none" xmlns="http://www.w3.org/2000/svg">
<g clip-path="url(#clip0_963_361)">
<path d="M0.33252 405.223V0.331848H543.634V405.223H536.984V6.9694H6.98289V405.223H0.33252Z" fill="black" stroke="black" stroke-miterlimit="10"/>
<path d="M370.093 398.585H0.33252V405.223H370.093V398.585Z" fill="black" stroke="black"/>
<path d="M543.634 398.585H522.386V405.223H543.634V398.585Z" fill="black" stroke="black"/>
<path d="M423.296 398.585H370.093V401.904H423.296V398.585Z" stroke="black"/>
<path d="M423.296 401.904C423.296 431.229 399.474 455.004 370.093 455.004V401.904" stroke="black" stroke-miterlimit="10"/>
<path d="M522.386 398.585H455.883V405.223H522.386V398.585Z" stroke="black"/>
<path d="M489.134 401.904H455.883V402.568H489.134V401.904Z" stroke="black"/>
<path d="M505.76 401.24H472.509V401.904H505.76V401.24Z" stroke="black"/>
<path d="M455.883 398.585H423.296V405.223H455.883V398.585Z" fill="black" stroke="black"/>
<path d="M427.951 6.96942H361.448V0.331867H427.951V6.96942Z" stroke="black"/>
<path d="M361.448 3.65063H427.951" stroke="black" stroke-miterlimit="10"/>
<path d="M145.976 6.97607H79.4719V0.33852H145.976V6.97607Z" stroke="black"/>
<path d="M79.4719 3.65729H145.976" stroke="black" stroke-miterlimit="10"/>
<path d="M216.469 6.97607H149.966V0.33852H216.469V6.97607Z" stroke="black"/>
<path d="M149.966 3.65729H216.469" stroke="black" stroke-miterlimit="10"/>
<path d="M286.963 6.97607H220.46V0.33852H286.963V6.97607Z" stroke="black"/>
<path d="M220.46 3.65729H286.963" stroke="black" stroke-miterlimit="10"/>
<path d="M357.457 6.97607H290.954V0.33852H357.457V6.97607Z" stroke="black"/>
<path d="M290.954 3.65729H357.457" stroke="black" stroke-miterlimit="10"/>
<path d="M498.445 6.96942H431.941V0.331867H498.445V6.96942Z" stroke="black"/>
<path d="M431.941 3.65063H498.445" stroke="black" stroke-miterlimit="10"/>
<path d="M74.1128 172.5L87.9806 183.263C90.0826 184.779 91.0889 187.397 90.5387 189.927C86.0902 196.019 80.7152 201.384 74.6113 205.824C72.0767 206.373 69.4526 205.369 67.9384 203.266L57.1555 189.425C56.0834 187.773 56.5066 185.257 58.1807 183.277L67.9478 173.528C69.9323 171.857 72.4528 171.435 74.1128 172.5ZM57.7622 183.694L51.8652 183.084ZM60.6965 180.766L56.1022 177.935ZM64.214 177.255L61.6747 172.374ZM67.1484 174.326L66.8286 168.15ZM67.882 167.446C61.6088 172.026 56.0458 177.579 51.4561 183.84L47.0545 184.14C52.5988 175.8 59.8266 168.586 68.183 163.052L67.882 167.446Z" fill="white"/>
<path d="M57.7622 183.694L51.8652 183.084M60.6965 180.766L56.1022 177.935M64.214 177.255L61.6747 172.374M67.1484 174.326L66.8286 168.15M74.1128 172.5L87.9806 183.263C90.0826 184.779 91.0889 187.397 90.5387 189.927C86.0902 196.019 80.7152 201.384 74.6113 205.824C72.0767 206.373 69.4526 205.369 67.9384 203.266L57.1555 189.425C56.0834 187.773 56.5066 185.257 58.1807 183.277L67.9478 173.528C69.9323 171.857 72.4528 171.435 74.1128 172.5ZM67.882 167.446C61.6088 172.026 56.0458 177.579 51.4561 183.84L47.0545 184.14C52.5988 175.8 59.8266 168.586 68.183 163.052L67.882 167.446Z" stroke="black" stroke-miterlimit="10" stroke-linejoin="round"/>
<path d="M107.957 138.502L121.824 149.264C123.926 150.78 124.933 153.389 124.387 155.924C119.934 162.021 114.559 167.385 108.455 171.825C105.916 172.37 103.296 171.37 101.782 169.267L90.9993 155.426C89.9318 153.769 90.3503 151.258 92.0291 149.273L101.792 139.529C103.776 137.859 106.297 137.436 107.957 138.502ZM91.6059 149.696L85.7089 149.085ZM94.5403 146.767L89.9459 143.937ZM98.0624 143.251L95.5184 138.375ZM100.997 140.323L100.672 134.151ZM101.726 133.447C95.4526 138.028 89.8895 143.58 85.2998 149.841L80.8935 150.137C86.4425 141.801 93.6703 134.587 102.022 129.049L101.726 133.447Z" fill="white"/>
<path d="M91.6059 149.696L85.7089 149.085M94.5403 146.767L89.9459 143.937M98.0624 143.251L95.5184 138.375M100.997 140.323L100.672 134.151M107.957 138.502L121.824 149.264C123.926 150.78 124.933 153.389 124.387 155.924C119.934 162.021 114.559 167.385 108.455 171.825C105.916 172.37 103.296 171.37 101.782 169.267L90.9993 155.426C89.9318 153.769 90.3503 151.258 92.0291 149.273L101.792 139.529C103.776 137.859 106.297 137.436 107.957 138.502ZM101.726 133.447C95.4526 138.028 89.8895 143.58 85.2998 149.841L80.8935 150.137C86.4425 141.801 93.6703 134.587 102.022 129.049L101.726 133.447Z" stroke="black" stroke-miterlimit="10" stroke-linejoin="round"/>
<path d="M92.0818 174L58.2236 207.793L77.0337 226.567L110.892 192.774L92.0818 174Z" fill="white" stroke="black"/>
<path d="M61.9856 204.038L58.2236 207.793L60.857 210.421L64.6191 206.666L61.9856 204.038Z" fill="white" stroke="black"/>
<path d="M78.1624 220.184L74.4004 223.938L77.0338 226.567L80.7958 222.812L78.1624 220.184Z" fill="white" stroke="black"/>
<path d="M92.077 174.005L88.3149 177.759L90.9483 180.388L94.7104 176.633L92.077 174.005Z" fill="white" stroke="black"/>
<path d="M108.254 190.15L104.492 193.905L107.125 196.533L110.887 192.779L108.254 190.15Z" fill="white" stroke="black"/>
<path d="M125.999 140L92.1406 173.793L110.951 192.567L144.809 158.774L125.999 140Z" fill="white" stroke="black"/>
<path d="M95.9026 170.038L92.1406 173.793L94.774 176.421L98.536 172.666L95.9026 170.038Z" fill="white" stroke="black"/>
<path d="M112.079 186.184L108.317 189.938L110.951 192.567L114.713 188.812L112.079 186.184Z" fill="white" stroke="black"/>
<path d="M125.994 140.005L122.232 143.759L124.865 146.388L128.627 142.633L125.994 140.005Z" fill="white" stroke="black"/>
<path d="M142.171 156.15L138.409 159.905L141.042 162.533L144.804 158.779L142.171 156.15Z" fill="white" stroke="black"/>
<path d="M231.073 229.501L248.504 227.323C251.064 226.905 253.631 228.047 255.035 230.224C256.205 237.671 256.205 245.258 255.035 252.705C253.631 254.889 251.064 256.024 248.504 255.613L231.073 253.436C229.145 253.017 227.662 250.94 227.442 248.358V234.578C227.662 231.99 229.145 229.912 231.073 229.501ZM227.442 248.949L222.84 252.679ZM227.442 244.807L222.188 246.048ZM227.442 239.842L222.188 238.189ZM227.442 235.7L222.84 231.558ZM223.086 230.317C221.896 237.99 221.896 245.836 223.086 253.509L220.187 256.821C218.198 247.01 218.198 236.815 220.187 227.005L223.086 230.317Z" fill="white"/>
<path d="M227.442 248.949L222.84 252.679M227.442 244.807L222.188 246.048M227.442 239.842L222.188 238.189M227.442 235.7L222.84 231.558M231.073 229.501L248.504 227.323C251.064 226.905 253.631 228.047 255.035 230.224C256.205 237.671 256.205 245.258 255.035 252.705C253.631 254.889 251.064 256.024 248.504 255.613L231.073 253.436C229.145 253.017 227.662 250.94 227.442 248.358V234.578C227.662 231.99 229.145 229.912 231.073 229.501ZM223.086 230.317C221.896 237.99 221.896 245.836 223.086 253.509L220.187 256.821C218.198 247.01 218.198 236.815 220.187 227.005L223.086 230.317Z" stroke="black" stroke-miterlimit="10" stroke-linejoin="round"/>
<path d="M231.073 180.644L248.497 178.467C251.057 178.048 253.625 179.19 255.034 181.367C256.205 188.815 256.205 196.401 255.034 203.849C253.625 206.032 251.057 207.167 248.497 206.756L231.073 204.579C229.145 204.161 227.661 202.083 227.442 199.501V185.721C227.661 183.133 229.145 181.055 231.073 180.644ZM227.442 200.092L222.84 203.822ZM227.442 195.95L222.182 197.191ZM227.442 190.985L222.182 189.332ZM227.442 186.843L222.84 182.701ZM223.086 181.46C221.889 189.133 221.889 196.979 223.086 204.652L220.18 207.964C218.191 198.154 218.191 187.958 220.18 178.148L223.086 181.46Z" fill="white"/>
<path d="M227.442 200.092L222.84 203.822M227.442 195.95L222.182 197.191M227.442 190.985L222.182 189.332M227.442 186.843L222.84 182.701M231.073 180.644L248.497 178.467C251.057 178.048 253.625 179.19 255.034 181.367C256.205 188.815 256.205 196.401 255.034 203.849C253.625 206.032 251.057 207.167 248.497 206.756L231.073 204.579C229.145 204.161 227.661 202.083 227.442 199.501V185.721C227.661 183.133 229.145 181.055 231.073 180.644ZM223.086 181.46C221.889 189.133 221.889 196.979 223.086 204.652L220.18 207.964C218.191 198.154 218.191 187.958 220.18 178.148L223.086 181.46Z" stroke="black" stroke-miterlimit="10" stroke-linejoin="round"/>
<path d="M244.986 217.964V265.755H271.587V217.964H244.986Z" fill="white" stroke="black"/>
<path d="M244.986 260.445V265.755H248.71V260.445H244.986Z" fill="white" stroke="black"/>
<path d="M267.863 260.445V265.755H271.587V260.445H267.863Z" fill="white" stroke="black"/>
<path d="M244.986 217.971V223.281H248.71V217.971H244.986Z" fill="white" stroke="black"/>
<path d="M267.863 217.971V223.281H271.587V217.971H267.863Z" fill="white" stroke="black"/>
<path d="M244.986 169.174V216.964H271.587V169.174H244.986Z" fill="white" stroke="black"/>
<path d="M244.986 211.654V216.964H248.71V211.654H244.986Z" fill="white" stroke="black"/>
<path d="M267.863 211.654V216.964H271.587V211.654H267.863Z" fill="white" stroke="black"/>
<path d="M244.986 169.181V174.491H248.71V169.181H244.986Z" fill="white" stroke="black"/>
<path d="M267.863 169.181V174.491H271.587V169.181H267.863Z" fill="white" stroke="black"/>
<path d="M312.999 205.375L295.575 207.552C293.015 207.964 290.448 206.829 289.038 204.652C287.867 197.198 287.867 189.618 289.038 182.164C290.448 179.987 293.015 178.852 295.575 179.263L312.999 181.44C314.928 181.858 316.411 183.929 316.63 186.518V200.298C316.411 202.886 314.928 204.957 312.999 205.375ZM316.63 185.921L321.232 182.197ZM316.63 190.062L321.891 188.821ZM316.63 195.034L321.891 196.687ZM316.63 199.176L321.232 203.318ZM320.986 204.559C322.183 196.886 322.183 189.034 320.986 181.367L323.892 178.055C325.881 187.865 325.881 198.061 323.892 207.871L320.986 204.559Z" fill="white"/>
<path d="M316.63 185.921L321.232 182.197M316.63 190.062L321.891 188.821M316.63 195.034L321.891 196.687M316.63 199.176L321.232 203.318M312.999 205.375L295.575 207.552C293.015 207.964 290.448 206.829 289.038 204.652C287.867 197.198 287.867 189.618 289.038 182.164C290.448 179.987 293.015 178.852 295.575 179.263L312.999 181.44C314.928 181.858 316.411 183.929 316.63 186.518V200.298C316.411 202.886 314.928 204.957 312.999 205.375ZM320.986 204.559C322.183 196.886 322.183 189.034 320.986 181.367L323.892 178.055C325.881 187.865 325.881 198.061 323.892 207.871L320.986 204.559Z" stroke="black" stroke-miterlimit="10" stroke-linejoin="round"/>
<path d="M312.999 254.232L295.568 256.409C293.008 256.821 290.441 255.686 289.038 253.509C287.867 246.055 287.867 238.474 289.038 231.021C290.441 228.843 293.008 227.708 295.568 228.12L312.999 230.297C314.928 230.715 316.411 232.786 316.63 235.375V249.154C316.411 251.743 314.928 253.814 312.999 254.232ZM316.63 234.777L321.232 231.054ZM316.63 238.919L321.884 237.678ZM316.63 243.891L321.884 245.543ZM316.63 248.033L321.232 252.174ZM320.986 253.416C322.176 245.743 322.176 237.89 320.986 230.224L323.886 226.912C325.874 236.722 325.874 246.917 323.886 256.728L320.986 253.416Z" fill="white"/>
<path d="M316.63 234.777L321.232 231.054M316.63 238.919L321.884 237.678M316.63 243.891L321.884 245.543M316.63 248.033L321.232 252.174M312.999 254.232L295.568 256.409C293.008 256.821 290.441 255.686 289.038 253.509C287.867 246.055 287.867 238.474 289.038 231.021C290.441 228.843 293.008 227.708 295.568 228.12L312.999 230.297C314.928 230.715 316.411 232.786 316.63 235.375V249.154C316.411 251.743 314.928 253.814 312.999 254.232ZM320.986 253.416C322.176 245.743 322.176 237.89 320.986 230.224L323.886 226.912C325.874 236.722 325.874 246.917 323.886 256.728L320.986 253.416Z" stroke="black" stroke-miterlimit="10" stroke-linejoin="round"/>
<path d="M299.087 216.971V169.181H272.485V216.971H299.087Z" fill="white" stroke="black"/>
<path d="M299.087 174.491V169.181H295.362V174.491H299.087Z" fill="white" stroke="black"/>
<path d="M276.209 174.491V169.181H272.485V174.491H276.209Z" fill="white" stroke="black"/>
<path d="M299.087 216.971V211.661H295.362V216.971H299.087Z" fill="white" stroke="black"/>
<path d="M276.209 216.971V211.661H272.485V216.971H276.209Z" fill="white" stroke="black"/>
<path d="M299.087 265.762V217.971H272.485V265.762H299.087Z" fill="white" stroke="black"/>
<path d="M299.087 223.281V217.971H295.362V223.281H299.087Z" fill="white" stroke="black"/>
<path d="M276.209 223.281V217.971H272.485V223.281H276.209Z" fill="white" stroke="black"/>
<path d="M299.087 265.762V260.451H295.362V265.762H299.087Z" fill="white" stroke="black"/>
<path d="M276.209 265.762V260.451H272.485V265.762H276.209Z" fill="white" stroke="black"/>
<path d="M231.074 278.05L248.497 275.873C251.065 275.455 253.625 276.596 255.035 278.773C256.205 286.221 256.205 293.807 255.035 301.261C253.625 303.439 251.065 304.574 248.497 304.162L231.074 301.985C229.145 301.567 227.662 299.489 227.442 296.907V283.128C227.662 280.539 229.145 278.468 231.074 278.05ZM227.442 297.505L222.84 301.228ZM227.442 293.363L222.189 294.604ZM227.442 288.391L222.189 286.738ZM227.442 284.249L222.84 280.108ZM223.086 278.866C221.889 286.539 221.889 294.385 223.086 302.058L220.18 305.37C218.198 295.56 218.198 285.365 220.18 275.554L223.086 278.866Z" fill="white"/>
<path d="M227.442 297.505L222.84 301.228M227.442 293.363L222.189 294.604M227.442 288.391L222.189 286.738M227.442 284.249L222.84 280.108M231.074 278.05L248.497 275.873C251.065 275.455 253.625 276.596 255.035 278.773C256.205 286.221 256.205 293.807 255.035 301.261C253.625 303.439 251.065 304.574 248.497 304.162L231.074 301.985C229.145 301.567 227.662 299.489 227.442 296.907V283.128C227.662 280.539 229.145 278.468 231.074 278.05ZM223.086 278.866C221.889 286.539 221.889 294.385 223.086 302.058L220.18 305.37C218.198 295.56 218.198 285.365 220.18 275.554L223.086 278.866Z" stroke="black" stroke-miterlimit="10" stroke-linejoin="round"/>
<path d="M244.986 266.587V314.377H271.587V266.587H244.986Z" fill="white" stroke="black"/>
<path d="M244.986 309.067V314.377H248.71V309.067H244.986Z" fill="white" stroke="black"/>
<path d="M267.863 309.067V314.377H271.587V309.067H267.863Z" fill="white" stroke="black"/>
<path d="M244.986 266.587V271.897H248.71V266.587H244.986Z" fill="white" stroke="black"/>
<path d="M267.863 266.587V271.897H271.587V266.587H267.863Z" fill="white" stroke="black"/>
<path d="M312.999 302.781L295.575 304.959C293.008 305.37 290.448 304.235 289.038 302.058C287.867 294.604 287.867 287.017 289.038 279.57C290.448 277.393 293.008 276.251 295.575 276.669L312.999 278.846C314.928 279.265 316.411 281.335 316.63 283.924V297.704C316.411 300.286 314.928 302.363 312.999 302.781ZM316.63 283.327L321.232 279.596ZM316.63 287.469L321.884 286.227ZM316.63 292.44L321.884 294.093ZM316.63 296.582L321.232 300.724ZM320.986 301.958C322.183 294.292 322.183 286.44 320.986 278.773L323.892 275.455C325.874 285.272 325.874 295.467 323.892 305.277L320.986 301.958Z" fill="white"/>
<path d="M316.63 283.327L321.232 279.596M316.63 287.469L321.884 286.227M316.63 292.44L321.884 294.093M316.63 296.582L321.232 300.724M312.999 302.781L295.575 304.959C293.008 305.37 290.448 304.235 289.038 302.058C287.867 294.604 287.867 287.017 289.038 279.57C290.448 277.393 293.008 276.251 295.575 276.669L312.999 278.846C314.928 279.265 316.411 281.335 316.63 283.924V297.704C316.411 300.286 314.928 302.363 312.999 302.781ZM320.986 301.958C322.183 294.292 322.183 286.44 320.986 278.773L323.892 275.455C325.874 285.272 325.874 295.467 323.892 305.277L320.986 301.958Z" stroke="black" stroke-miterlimit="10" stroke-linejoin="round"/>
<path d="M299.087 314.377V266.587H272.485V314.377H299.087Z" fill="white" stroke="black"/>
<path d="M299.087 271.897V266.587H295.362V271.897H299.087Z" fill="white" stroke="black"/>
<path d="M276.209 271.897V266.587H272.485V271.897H276.209Z" fill="white" stroke="black"/>
<path d="M299.087 314.377V309.067H295.362V314.377H299.087Z" fill="white" stroke="black"/>
<path d="M276.209 314.377V309.067H272.485V314.377H276.209Z" fill="white" stroke="black"/>
<path d="M232.317 76.547L249.741 74.3698C252.301 73.9517 254.868 75.0933 256.278 77.2705C257.449 84.7178 257.449 92.3045 256.278 99.7585C254.868 101.936 252.301 103.071 249.741 102.659L232.317 100.482C230.388 100.064 228.905 97.9863 228.686 95.4042V81.6247C228.905 79.036 230.388 76.9651 232.317 76.547ZM228.686 96.0016L224.084 99.7253ZM228.686 91.8598L223.425 93.0944ZM228.686 86.8883L223.425 85.2355ZM228.686 82.7464L224.084 78.6046ZM224.33 77.3634C223.133 85.0364 223.133 92.882 224.33 100.555L221.423 103.867C219.435 94.0568 219.435 83.8615 221.423 74.0512L224.33 77.3634Z" fill="white"/>
<path d="M228.686 96.0016L224.084 99.7253M228.686 91.8598L223.425 93.0944M228.686 86.8883L223.425 85.2355M228.686 82.7464L224.084 78.6046M232.317 76.547L249.741 74.3698C252.301 73.9517 254.868 75.0933 256.278 77.2705C257.449 84.7178 257.449 92.3045 256.278 99.7585C254.868 101.936 252.301 103.071 249.741 102.659L232.317 100.482C230.388 100.064 228.905 97.9863 228.686 95.4042V81.6247C228.905 79.036 230.388 76.9651 232.317 76.547ZM224.33 77.3634C223.133 85.0364 223.133 92.882 224.33 100.555L221.423 103.867C219.435 94.0568 219.435 83.8615 221.423 74.0512L224.33 77.3634Z" stroke="black" stroke-miterlimit="10" stroke-linejoin="round"/>
<path d="M246.229 65.0109V112.801H272.831V65.0109H246.229Z" fill="white" stroke="black"/>
<path d="M246.229 107.491V112.801H249.954V107.491H246.229Z" fill="white" stroke="black"/>
<path d="M269.107 107.491V112.801H272.831V107.491H269.107Z" fill="white" stroke="black"/>
<path d="M246.229 65.0109V70.3209H249.954V65.0109H246.229Z" fill="white" stroke="black"/>
<path d="M269.107 65.0109V70.3209H272.831V65.0109H269.107Z" fill="white" stroke="black"/>
<path d="M312.254 101.272L294.83 103.449C292.27 103.867 289.703 102.726 288.293 100.548C287.123 93.1011 287.123 85.5143 288.293 78.067C289.703 75.8899 292.27 74.7482 294.83 75.1664L312.254 77.3369C314.183 77.755 315.666 79.8326 315.885 82.4146V96.2008C315.666 98.7828 314.183 100.86 312.254 101.272ZM315.885 81.8239L320.488 78.0935ZM315.885 85.9657L321.146 84.7245ZM315.885 90.9306L321.146 92.5833ZM315.885 95.0724L320.488 99.2143ZM320.241 100.455C321.439 92.7891 321.439 84.9369 320.241 77.2639L323.148 73.9517C325.129 83.762 325.129 93.9573 323.148 103.768L320.241 100.455Z" fill="white"/>
<path d="M315.885 81.8239L320.488 78.0935M315.885 85.9657L321.146 84.7245M315.885 90.9306L321.146 92.5833M315.885 95.0724L320.488 99.2143M312.254 101.272L294.83 103.449C292.27 103.867 289.703 102.726 288.293 100.548C287.123 93.1011 287.123 85.5143 288.293 78.067C289.703 75.8899 292.27 74.7482 294.83 75.1664L312.254 77.3369C314.183 77.755 315.666 79.8326 315.885 82.4146V96.2008C315.666 98.7828 314.183 100.86 312.254 101.272ZM320.241 100.455C321.439 92.7891 321.439 84.9369 320.241 77.2639L323.148 73.9517C325.129 83.762 325.129 93.9573 323.148 103.768L320.241 100.455Z" stroke="black" stroke-miterlimit="10" stroke-linejoin="round"/>
<path d="M298.342 112.795V65.0043H271.74V112.795H298.342Z" fill="white" stroke="black"/>
<path d="M298.342 70.3143V65.0043H294.618V70.3143H298.342Z" fill="white" stroke="black"/>
<path d="M275.464 70.3143V65.0043H271.74V70.3143H275.464Z" fill="white" stroke="black"/>
<path d="M298.342 112.795V107.485H294.618V112.795H298.342Z" fill="white" stroke="black"/>
<path d="M275.464 112.795V107.485H271.74V112.795H275.464Z" fill="white" stroke="black"/>
<path d="M453.298 156.054L442.515 169.895C441.001 171.998 438.377 173.002 435.842 172.453C429.738 168.013 424.363 162.648 419.915 156.556C419.36 154.022 420.371 151.407 422.473 149.891L436.341 139.129C438.001 138.064 440.521 138.486 442.506 140.157L452.268 149.901C453.947 151.886 454.37 154.402 453.298 156.054ZM442.087 139.74L442.699 133.854ZM445.022 142.668L447.857 138.083ZM448.539 146.179L453.425 143.64ZM451.473 149.108L457.662 148.789ZM458.367 149.84C453.773 143.574 448.215 138.026 441.937 133.441L441.641 129.053C449.997 134.586 457.22 141.795 462.764 150.136L458.367 149.84Z" fill="white"/>
<path d="M442.087 139.74L442.699 133.854M445.022 142.668L447.857 138.083M448.539 146.179L453.425 143.64M451.473 149.108L457.662 148.789M453.298 156.054L442.515 169.895C441.001 171.998 438.377 173.002 435.842 172.453C429.738 168.013 424.363 162.648 419.915 156.556C419.36 154.022 420.371 151.407 422.473 149.891L436.341 139.129C438.001 138.064 440.521 138.486 442.506 140.157L452.268 149.901C453.947 151.886 454.37 154.402 453.298 156.054ZM458.367 149.84C453.773 143.574 448.215 138.026 441.937 133.441L441.641 129.053C449.997 134.586 457.22 141.795 462.764 150.136L458.367 149.84Z" stroke="black" stroke-miterlimit="10" stroke-linejoin="round"/>
<path d="M487.073 190.059L476.286 203.895C474.771 205.998 472.147 207.002 469.613 206.453C463.509 202.013 458.134 196.648 453.685 190.556C453.135 188.026 454.142 185.407 456.248 183.896L470.111 173.129C471.767 172.069 474.292 172.486 476.272 174.162L486.039 183.91C487.718 185.886 488.136 188.407 487.073 190.059ZM475.853 173.744L476.469 167.854ZM478.787 176.673L481.628 172.083ZM482.305 180.184L487.196 177.64ZM485.239 183.112L491.433 182.789ZM492.138 183.84C487.548 177.579 481.985 172.026 475.707 167.441L475.411 163.053C483.767 168.586 490.99 175.795 496.535 184.136L492.138 183.84Z" fill="white"/>
<path d="M475.853 173.744L476.469 167.854M478.787 176.673L481.628 172.083M482.305 180.184L487.196 177.64M485.239 183.112L491.433 182.789M487.073 190.059L476.286 203.895C474.771 205.998 472.147 207.002 469.613 206.453C463.509 202.013 458.134 196.648 453.685 190.556C453.135 188.026 454.142 185.407 456.248 183.896L470.111 173.129C471.767 172.069 474.292 172.486 476.272 174.162L486.039 183.91C487.718 185.886 488.136 188.407 487.073 190.059ZM492.138 183.84C487.548 177.579 481.985 172.026 475.707 167.441L475.411 163.053C483.767 168.586 490.99 175.795 496.535 184.136L492.138 183.84Z" stroke="black" stroke-miterlimit="10" stroke-linejoin="round"/>
<path d="M451.668 173.793L417.81 140L399 158.774L432.858 192.567L451.668 173.793Z" fill="white" stroke="black"/>
<path d="M421.572 143.755L417.81 140L415.177 142.628L418.939 146.383L421.572 143.755Z" fill="white" stroke="black"/>
<path d="M405.395 159.9L401.633 156.146L399 158.774L402.762 162.529L405.395 159.9Z" fill="white" stroke="black"/>
<path d="M451.663 173.788L447.901 170.033L445.268 172.662L449.03 176.417L451.663 173.788Z" fill="white" stroke="black"/>
<path d="M435.487 189.934L431.725 186.179L429.091 188.807L432.853 192.562L435.487 189.934Z" fill="white" stroke="black"/>
<path d="M485.514 207.793L451.656 174L432.846 192.774L466.704 226.567L485.514 207.793Z" fill="white" stroke="black"/>
<path d="M455.418 177.755L451.656 174L449.022 176.628L452.784 180.383L455.418 177.755Z" fill="white" stroke="black"/>
<path d="M439.241 193.9L435.479 190.146L432.846 192.774L436.608 196.529L439.241 193.9Z" fill="white" stroke="black"/>
<path d="M485.509 207.788L481.747 204.033L479.114 206.662L482.876 210.417L485.509 207.788Z" fill="white" stroke="black"/>
<path d="M469.333 223.934L465.571 220.179L462.937 222.807L466.699 226.562L469.333 223.934Z" fill="white" stroke="black"/>
<circle cx="84" cy="201" r="12" fill="#E7E7E7"/>
<circle cx="118" cy="168" r="12" fill="#E7E7E7"/>
<circle cx="259" cy="88" r="12" fill="#E7E7E7"/>
<circle cx="258" cy="193" r="12" fill="#E7E7E7"/>
<circle cx="258" cy="241" r="12" fill="#E7E7E7"/>
<circle cx="258" cy="290" r="12" fill="#E7E7E7"/>
<circle cx="286" cy="88" r="12" fill="#E7E7E7"/>
<circle cx="286" cy="241" r="12" fill="#E7E7E7"/>
<circle cx="286" cy="193" r="12" fill="#E7E7E7"/>
<circle cx="426" cy="167" r="12" fill="#E7E7E7"/>
<circle cx="460" cy="201" r="12" fill="#E7E7E7"/>
<circle cx="286" cy="290" r="12" fill="#E7E7E7"/>
<path d="M79.0196 208.252C81.5036 208.252 83.1056 205.966 83.1056 201.358C83.1056 196.786 81.5036 194.572 79.0196 194.572C76.4996 194.572 74.8976 196.786 74.8976 201.358C74.8976 205.966 76.4996 208.252 79.0196 208.252ZM79.0196 206.92C77.5076 206.92 76.4816 205.246 76.4816 201.358C76.4816 197.524 77.5076 195.886 79.0196 195.886C80.5136 195.886 81.5216 197.524 81.5216 201.358C81.5216 205.246 80.5136 206.92 79.0196 206.92ZM85.584 208H92.82V206.632H90.156V194.806H88.896C88.194 195.238 87.348 195.544 86.16 195.742V196.804H88.518V206.632H85.584V208Z" fill="black"/>
<path d="M113.02 174.252C115.504 174.252 117.106 171.966 117.106 167.358C117.106 162.786 115.504 160.572 113.02 160.572C110.5 160.572 108.898 162.786 108.898 167.358C108.898 171.966 110.5 174.252 113.02 174.252ZM113.02 172.92C111.508 172.92 110.482 171.246 110.482 167.358C110.482 163.524 111.508 161.886 113.02 161.886C114.514 161.886 115.522 163.524 115.522 167.358C115.522 171.246 114.514 172.92 113.02 172.92ZM118.792 174H127.072V172.596H123.418C122.752 172.596 121.96 172.65 121.258 172.722C124.372 169.788 126.442 167.106 126.442 164.46C126.442 162.102 124.966 160.572 122.608 160.572C120.934 160.572 119.782 161.346 118.702 162.516L119.656 163.434C120.394 162.57 121.33 161.904 122.41 161.904C124.048 161.904 124.822 163.02 124.822 164.532C124.822 166.782 122.932 169.428 118.792 173.046V174Z" fill="black"/>
<path d="M253.02 95.252C255.504 95.252 257.106 92.966 257.106 88.358C257.106 83.786 255.504 81.572 253.02 81.572C250.5 81.572 248.898 83.786 248.898 88.358C248.898 92.966 250.5 95.252 253.02 95.252ZM253.02 93.92C251.508 93.92 250.482 92.246 250.482 88.358C250.482 84.524 251.508 82.886 253.02 82.886C254.514 82.886 255.522 84.524 255.522 88.358C255.522 92.246 254.514 93.92 253.02 93.92ZM262.734 95.252C265.092 95.252 266.982 93.83 266.982 91.49C266.982 89.672 265.722 88.502 264.174 88.124V88.052C265.578 87.548 266.514 86.486 266.514 84.884C266.514 82.778 264.894 81.572 262.68 81.572C261.168 81.572 259.998 82.238 259.008 83.138L259.89 84.2C260.628 83.444 261.564 82.904 262.626 82.904C263.994 82.904 264.84 83.732 264.84 84.992C264.84 86.432 263.922 87.512 261.204 87.512V88.79C264.246 88.79 265.308 89.834 265.308 91.418C265.308 92.93 264.192 93.884 262.626 93.884C261.114 93.884 260.124 93.164 259.35 92.354L258.522 93.434C259.386 94.388 260.664 95.252 262.734 95.252Z" fill="black"/>
<path d="M281.02 95.252C283.504 95.252 285.106 92.966 285.106 88.358C285.106 83.786 283.504 81.572 281.02 81.572C278.5 81.572 276.898 83.786 276.898 88.358C276.898 92.966 278.5 95.252 281.02 95.252ZM281.02 93.92C279.508 93.92 278.482 92.246 278.482 88.358C278.482 84.524 279.508 82.886 281.02 82.886C282.514 82.886 283.522 84.524 283.522 88.358C283.522 92.246 282.514 93.92 281.02 93.92ZM292.102 95H293.65V81.806H291.832L286.342 90.284V91.364H295.414V90.068H288.07L291.076 85.568C291.436 84.92 291.796 84.254 292.12 83.606H292.21C292.156 84.29 292.102 85.352 292.102 86.018V95Z" fill="black"/>
<path d="M253.02 297.252C255.504 297.252 257.106 294.966 257.106 290.358C257.106 285.786 255.504 283.572 253.02 283.572C250.5 283.572 248.898 285.786 248.898 290.358C248.898 294.966 250.5 297.252 253.02 297.252ZM253.02 295.92C251.508 295.92 250.482 294.246 250.482 290.358C250.482 286.524 251.508 284.886 253.02 284.886C254.514 284.886 255.522 286.524 255.522 290.358C255.522 294.246 254.514 295.92 253.02 295.92ZM262.212 297.252C264.696 297.252 267 295.2 267 289.836C267 285.642 265.11 283.572 262.572 283.572C260.52 283.572 258.792 285.3 258.792 287.856C258.792 290.592 260.214 291.996 262.428 291.996C263.562 291.996 264.732 291.312 265.56 290.268L265.47 288.954C264.606 290.268 263.58 290.79 262.698 290.79C261.132 290.79 260.34 289.62 260.34 287.856C260.34 286.038 261.312 284.85 262.572 284.85C264.426 284.85 265.452 286.596 265.452 289.836C265.452 294.354 263.922 295.884 262.158 295.884C261.312 295.884 260.502 295.506 259.944 294.858L259.026 295.902C259.764 296.676 260.772 297.252 262.212 297.252Z" fill="black"/>
<path d="M277.6 297H284.836V295.632H282.172V283.806H280.912C280.21 284.238 279.364 284.544 278.176 284.742V285.804H280.534V295.632H277.6V297ZM291.004 297.252C293.488 297.252 295.09 294.966 295.09 290.358C295.09 285.786 293.488 283.572 291.004 283.572C288.484 283.572 286.882 285.786 286.882 290.358C286.882 294.966 288.484 297.252 291.004 297.252ZM291.004 295.92C289.492 295.92 288.466 294.246 288.466 290.358C288.466 286.524 289.492 284.886 291.004 284.886C292.498 284.886 293.506 286.524 293.506 290.358C293.506 294.246 292.498 295.92 291.004 295.92Z" fill="black"/>
<path d="M253.02 248.252C255.504 248.252 257.106 245.966 257.106 241.358C257.106 236.786 255.504 234.572 253.02 234.572C250.5 234.572 248.898 236.786 248.898 241.358C248.898 245.966 250.5 248.252 253.02 248.252ZM253.02 246.92C251.508 246.92 250.482 245.246 250.482 241.358C250.482 237.524 251.508 235.886 253.02 235.886C254.514 235.886 255.522 237.524 255.522 241.358C255.522 245.246 254.514 246.92 253.02 246.92ZM261.546 248H263.256C263.472 242.852 264.03 239.774 267.126 235.796V234.806H258.882V236.21H265.272C262.68 239.81 261.78 243.014 261.546 248Z" fill="black"/>
<path d="M281.02 248.252C283.504 248.252 285.106 245.966 285.106 241.358C285.106 236.786 283.504 234.572 281.02 234.572C278.5 234.572 276.898 236.786 276.898 241.358C276.898 245.966 278.5 248.252 281.02 248.252ZM281.02 246.92C279.508 246.92 278.482 245.246 278.482 241.358C278.482 237.524 279.508 235.886 281.02 235.886C282.514 235.886 283.522 237.524 283.522 241.358C283.522 245.246 282.514 246.92 281.02 246.92ZM291.022 248.252C293.488 248.252 295.162 246.758 295.162 244.832C295.162 243.032 294.082 242.024 292.93 241.358V241.268C293.722 240.656 294.694 239.486 294.694 238.082C294.694 236.066 293.326 234.626 291.076 234.626C289.006 234.626 287.44 235.958 287.44 237.956C287.44 239.342 288.268 240.35 289.24 241.016V241.088C288.034 241.736 286.81 242.96 286.81 244.742C286.81 246.776 288.592 248.252 291.022 248.252ZM291.922 240.854C290.374 240.242 288.952 239.54 288.952 237.956C288.952 236.696 289.834 235.832 291.04 235.832C292.462 235.832 293.29 236.876 293.29 238.172C293.29 239.162 292.822 240.062 291.922 240.854ZM291.058 247.01C289.474 247.01 288.286 245.984 288.286 244.58C288.286 243.32 289.024 242.276 290.104 241.592C291.958 242.348 293.578 243.014 293.578 244.778C293.578 246.092 292.57 247.01 291.058 247.01Z" fill="black"/>
<path d="M253.02 200.252C255.504 200.252 257.106 197.966 257.106 193.358C257.106 188.786 255.504 186.572 253.02 186.572C250.5 186.572 248.898 188.786 248.898 193.358C248.898 197.966 250.5 200.252 253.02 200.252ZM253.02 198.92C251.508 198.92 250.482 197.246 250.482 193.358C250.482 189.524 251.508 187.886 253.02 187.886C254.514 187.886 255.522 189.524 255.522 193.358C255.522 197.246 254.514 198.92 253.02 198.92ZM262.698 200.252C264.912 200.252 267.018 198.596 267.018 195.716C267.018 192.8 265.236 191.504 263.04 191.504C262.248 191.504 261.654 191.702 261.06 192.026L261.402 188.21H266.388V186.806H259.962L259.548 192.98L260.43 193.538C261.186 193.034 261.744 192.746 262.626 192.746C264.264 192.746 265.344 193.88 265.344 195.77C265.344 197.678 264.102 198.884 262.536 198.884C261.024 198.884 260.052 198.182 259.314 197.408L258.486 198.488C259.386 199.388 260.646 200.252 262.698 200.252Z" fill="black"/>
<path d="M281.02 200.252C283.504 200.252 285.106 197.966 285.106 193.358C285.106 188.786 283.504 186.572 281.02 186.572C278.5 186.572 276.898 188.786 276.898 193.358C276.898 197.966 278.5 200.252 281.02 200.252ZM281.02 198.92C279.508 198.92 278.482 197.246 278.482 193.358C278.482 189.524 279.508 187.886 281.02 187.886C282.514 187.886 283.522 189.524 283.522 193.358C283.522 197.246 282.514 198.92 281.02 198.92ZM291.418 200.252C293.452 200.252 295.198 198.524 295.198 195.968C295.198 193.196 293.758 191.828 291.526 191.828C290.464 191.828 289.24 192.476 288.43 193.538L288.484 194.852C289.366 193.538 290.428 193.034 291.274 193.034C292.858 193.034 293.65 194.168 293.65 195.968C293.65 197.75 292.678 198.956 291.418 198.956C289.564 198.956 288.538 197.102 288.538 193.718C288.538 189.398 290.086 187.94 291.94 187.94C292.732 187.94 293.542 188.318 294.046 188.93L294.964 187.922C294.244 187.148 293.236 186.572 291.868 186.572C289.312 186.572 286.99 188.552 286.99 193.718C286.99 198.074 288.88 200.252 291.418 200.252Z" fill="black"/>
<path d="M417.6 174H424.836V172.632H422.172V160.806H420.912C420.21 161.238 419.364 161.544 418.176 161.742V162.804H420.534V172.632H417.6V174ZM427.584 174H434.82V172.632H432.156V160.806H430.896C430.194 161.238 429.348 161.544 428.16 161.742V162.804H430.518V172.632H427.584V174Z" fill="black"/>
<path d="M451.6 208H458.836V206.632H456.172V194.806H454.912C454.21 195.238 453.364 195.544 452.176 195.742V196.804H454.534V206.632H451.6V208ZM460.792 208H469.072V206.596H465.418C464.752 206.596 463.96 206.65 463.258 206.722C466.372 203.788 468.442 201.106 468.442 198.46C468.442 196.102 466.966 194.572 464.608 194.572C462.934 194.572 461.782 195.346 460.702 196.516L461.656 197.434C462.394 196.57 463.33 195.904 464.41 195.904C466.048 195.904 466.822 197.02 466.822 198.532C466.822 200.782 464.932 203.428 460.792 207.046V208Z" fill="black"/>
</g>
<defs>
<clipPath id="clip0_963_361">
<rect width="544" height="456" fill="white"/>
</clipPath>
</defs>
</svg>
