<svg width="544" height="456" viewBox="0 0 544 456" fill="none" xmlns="http://www.w3.org/2000/svg">
<path d="M79.0196 208.252C81.5036 208.252 83.1056 205.966 83.1056 201.358C83.1056 196.786 81.5036 194.572 79.0196 194.572C76.4996 194.572 74.8976 196.786 74.8976 201.358C74.8976 205.966 76.4996 208.252 79.0196 208.252ZM79.0196 206.92C77.5076 206.92 76.4816 205.246 76.4816 201.358C76.4816 197.524 77.5076 195.886 79.0196 195.886C80.5136 195.886 81.5216 197.524 81.5216 201.358C81.5216 205.246 80.5136 206.92 79.0196 206.92ZM85.584 208H92.82V206.632H90.156V194.806H88.896C88.194 195.238 87.348 195.544 86.16 195.742V196.804H88.518V206.632H85.584V208Z" fill="#848484"/>
<path d="M113.02 174.252C115.504 174.252 117.106 171.966 117.106 167.358C117.106 162.786 115.504 160.572 113.02 160.572C110.5 160.572 108.898 162.786 108.898 167.358C108.898 171.966 110.5 174.252 113.02 174.252ZM113.02 172.92C111.508 172.92 110.482 171.246 110.482 167.358C110.482 163.524 111.508 161.886 113.02 161.886C114.514 161.886 115.522 163.524 115.522 167.358C115.522 171.246 114.514 172.92 113.02 172.92ZM118.792 174H127.072V172.596H123.418C122.752 172.596 121.96 172.65 121.258 172.722C124.372 169.788 126.442 167.106 126.442 164.46C126.442 162.102 124.966 160.572 122.608 160.572C120.934 160.572 119.782 161.346 118.702 162.516L119.656 163.434C120.394 162.57 121.33 161.904 122.41 161.904C124.048 161.904 124.822 163.02 124.822 164.532C124.822 166.782 122.932 169.428 118.792 173.046V174Z" fill="#848484"/>
<path d="M253.02 95.252C255.504 95.252 257.106 92.966 257.106 88.358C257.106 83.786 255.504 81.572 253.02 81.572C250.5 81.572 248.898 83.786 248.898 88.358C248.898 92.966 250.5 95.252 253.02 95.252ZM253.02 93.92C251.508 93.92 250.482 92.246 250.482 88.358C250.482 84.524 251.508 82.886 253.02 82.886C254.514 82.886 255.522 84.524 255.522 88.358C255.522 92.246 254.514 93.92 253.02 93.92ZM262.734 95.252C265.092 95.252 266.982 93.83 266.982 91.49C266.982 89.672 265.722 88.502 264.174 88.124V88.052C265.578 87.548 266.514 86.486 266.514 84.884C266.514 82.778 264.894 81.572 262.68 81.572C261.168 81.572 259.998 82.238 259.008 83.138L259.89 84.2C260.628 83.444 261.564 82.904 262.626 82.904C263.994 82.904 264.84 83.732 264.84 84.992C264.84 86.432 263.922 87.512 261.204 87.512V88.79C264.246 88.79 265.308 89.834 265.308 91.418C265.308 92.93 264.192 93.884 262.626 93.884C261.114 93.884 260.124 93.164 259.35 92.354L258.522 93.434C259.386 94.388 260.664 95.252 262.734 95.252Z" fill="#848484"/>
<path d="M281.02 95.252C283.504 95.252 285.106 92.966 285.106 88.358C285.106 83.786 283.504 81.572 281.02 81.572C278.5 81.572 276.898 83.786 276.898 88.358C276.898 92.966 278.5 95.252 281.02 95.252ZM281.02 93.92C279.508 93.92 278.482 92.246 278.482 88.358C278.482 84.524 279.508 82.886 281.02 82.886C282.514 82.886 283.522 84.524 283.522 88.358C283.522 92.246 282.514 93.92 281.02 93.92ZM292.102 95H293.65V81.806H291.832L286.342 90.284V91.364H295.414V90.068H288.07L291.076 85.568C291.436 84.92 291.796 84.254 292.12 83.606H292.21C292.156 84.29 292.102 85.352 292.102 86.018V95Z" fill="#848484"/>
<path d="M253.02 297.252C255.504 297.252 257.106 294.966 257.106 290.358C257.106 285.786 255.504 283.572 253.02 283.572C250.5 283.572 248.898 285.786 248.898 290.358C248.898 294.966 250.5 297.252 253.02 297.252ZM253.02 295.92C251.508 295.92 250.482 294.246 250.482 290.358C250.482 286.524 251.508 284.886 253.02 284.886C254.514 284.886 255.522 286.524 255.522 290.358C255.522 294.246 254.514 295.92 253.02 295.92ZM262.212 297.252C264.696 297.252 267 295.2 267 289.836C267 285.642 265.11 283.572 262.572 283.572C260.52 283.572 258.792 285.3 258.792 287.856C258.792 290.592 260.214 291.996 262.428 291.996C263.562 291.996 264.732 291.312 265.56 290.268L265.47 288.954C264.606 290.268 263.58 290.79 262.698 290.79C261.132 290.79 260.34 289.62 260.34 287.856C260.34 286.038 261.312 284.85 262.572 284.85C264.426 284.85 265.452 286.596 265.452 289.836C265.452 294.354 263.922 295.884 262.158 295.884C261.312 295.884 260.502 295.506 259.944 294.858L259.026 295.902C259.764 296.676 260.772 297.252 262.212 297.252Z" fill="#848484"/>
<path d="M277.6 297H284.836V295.632H282.172V283.806H280.912C280.21 284.238 279.364 284.544 278.176 284.742V285.804H280.534V295.632H277.6V297ZM291.004 297.252C293.488 297.252 295.09 294.966 295.09 290.358C295.09 285.786 293.488 283.572 291.004 283.572C288.484 283.572 286.882 285.786 286.882 290.358C286.882 294.966 288.484 297.252 291.004 297.252ZM291.004 295.92C289.492 295.92 288.466 294.246 288.466 290.358C288.466 286.524 289.492 284.886 291.004 284.886C292.498 284.886 293.506 286.524 293.506 290.358C293.506 294.246 292.498 295.92 291.004 295.92Z" fill="#848484"/>
<path d="M253.02 248.252C255.504 248.252 257.106 245.966 257.106 241.358C257.106 236.786 255.504 234.572 253.02 234.572C250.5 234.572 248.898 236.786 248.898 241.358C248.898 245.966 250.5 248.252 253.02 248.252ZM253.02 246.92C251.508 246.92 250.482 245.246 250.482 241.358C250.482 237.524 251.508 235.886 253.02 235.886C254.514 235.886 255.522 237.524 255.522 241.358C255.522 245.246 254.514 246.92 253.02 246.92ZM261.546 248H263.256C263.472 242.852 264.03 239.774 267.126 235.796V234.806H258.882V236.21H265.272C262.68 239.81 261.78 243.014 261.546 248Z" fill="#848484"/>
<path d="M281.02 248.252C283.504 248.252 285.106 245.966 285.106 241.358C285.106 236.786 283.504 234.572 281.02 234.572C278.5 234.572 276.898 236.786 276.898 241.358C276.898 245.966 278.5 248.252 281.02 248.252ZM281.02 246.92C279.508 246.92 278.482 245.246 278.482 241.358C278.482 237.524 279.508 235.886 281.02 235.886C282.514 235.886 283.522 237.524 283.522 241.358C283.522 245.246 282.514 246.92 281.02 246.92ZM291.022 248.252C293.488 248.252 295.162 246.758 295.162 244.832C295.162 243.032 294.082 242.024 292.93 241.358V241.268C293.722 240.656 294.694 239.486 294.694 238.082C294.694 236.066 293.326 234.626 291.076 234.626C289.006 234.626 287.44 235.958 287.44 237.956C287.44 239.342 288.268 240.35 289.24 241.016V241.088C288.034 241.736 286.81 242.96 286.81 244.742C286.81 246.776 288.592 248.252 291.022 248.252ZM291.922 240.854C290.374 240.242 288.952 239.54 288.952 237.956C288.952 236.696 289.834 235.832 291.04 235.832C292.462 235.832 293.29 236.876 293.29 238.172C293.29 239.162 292.822 240.062 291.922 240.854ZM291.058 247.01C289.474 247.01 288.286 245.984 288.286 244.58C288.286 243.32 289.024 242.276 290.104 241.592C291.958 242.348 293.578 243.014 293.578 244.778C293.578 246.092 292.57 247.01 291.058 247.01Z" fill="#848484"/>
<path d="M253.02 200.252C255.504 200.252 257.106 197.966 257.106 193.358C257.106 188.786 255.504 186.572 253.02 186.572C250.5 186.572 248.898 188.786 248.898 193.358C248.898 197.966 250.5 200.252 253.02 200.252ZM253.02 198.92C251.508 198.92 250.482 197.246 250.482 193.358C250.482 189.524 251.508 187.886 253.02 187.886C254.514 187.886 255.522 189.524 255.522 193.358C255.522 197.246 254.514 198.92 253.02 198.92ZM262.698 200.252C264.912 200.252 267.018 198.596 267.018 195.716C267.018 192.8 265.236 191.504 263.04 191.504C262.248 191.504 261.654 191.702 261.06 192.026L261.402 188.21H266.388V186.806H259.962L259.548 192.98L260.43 193.538C261.186 193.034 261.744 192.746 262.626 192.746C264.264 192.746 265.344 193.88 265.344 195.77C265.344 197.678 264.102 198.884 262.536 198.884C261.024 198.884 260.052 198.182 259.314 197.408L258.486 198.488C259.386 199.388 260.646 200.252 262.698 200.252Z" fill="#848484"/>
<path d="M281.02 200.252C283.504 200.252 285.106 197.966 285.106 193.358C285.106 188.786 283.504 186.572 281.02 186.572C278.5 186.572 276.898 188.786 276.898 193.358C276.898 197.966 278.5 200.252 281.02 200.252ZM281.02 198.92C279.508 198.92 278.482 197.246 278.482 193.358C278.482 189.524 279.508 187.886 281.02 187.886C282.514 187.886 283.522 189.524 283.522 193.358C283.522 197.246 282.514 198.92 281.02 198.92ZM291.418 200.252C293.452 200.252 295.198 198.524 295.198 195.968C295.198 193.196 293.758 191.828 291.526 191.828C290.464 191.828 289.24 192.476 288.43 193.538L288.484 194.852C289.366 193.538 290.428 193.034 291.274 193.034C292.858 193.034 293.65 194.168 293.65 195.968C293.65 197.75 292.678 198.956 291.418 198.956C289.564 198.956 288.538 197.102 288.538 193.718C288.538 189.398 290.086 187.94 291.94 187.94C292.732 187.94 293.542 188.318 294.046 188.93L294.964 187.922C294.244 187.148 293.236 186.572 291.868 186.572C289.312 186.572 286.99 188.552 286.99 193.718C286.99 198.074 288.88 200.252 291.418 200.252Z" fill="#848484"/>
<path d="M417.6 174H424.836V172.632H422.172V160.806H420.912C420.21 161.238 419.364 161.544 418.176 161.742V162.804H420.534V172.632H417.6V174ZM427.584 174H434.82V172.632H432.156V160.806H430.896C430.194 161.238 429.348 161.544 428.16 161.742V162.804H430.518V172.632H427.584V174Z" fill="#848484"/>
<path d="M451.6 208H458.836V206.632H456.172V194.806H454.912C454.21 195.238 453.364 195.544 452.176 195.742V196.804H454.534V206.632H451.6V208ZM460.792 208H469.072V206.596H465.418C464.752 206.596 463.96 206.65 463.258 206.722C466.372 203.788 468.442 201.106 468.442 198.46C468.442 196.102 466.966 194.572 464.608 194.572C462.934 194.572 461.782 195.346 460.702 196.516L461.656 197.434C462.394 196.57 463.33 195.904 464.41 195.904C466.048 195.904 466.822 197.02 466.822 198.532C466.822 200.782 464.932 203.428 460.792 207.046V208Z" fill="#848484"/>
</svg>
