<svg width="544" height="456" viewBox="0 0 544 456" fill="none" xmlns="http://www.w3.org/2000/svg">
<g clip-path="url(#clip0_963_361)">
<path d="M0.33252 405.223V0.331848H543.634V405.223H536.984V6.9694H6.98289V405.223H0.33252Z" fill="black" stroke="black" stroke-miterlimit="10"/>
<path d="M370.093 398.585H0.33252V405.223H370.093V398.585Z" fill="black" stroke="black"/>
<path d="M543.634 398.585H522.386V405.223H543.634V398.585Z" fill="black" stroke="black"/>
<path d="M423.296 398.585H370.093V401.904H423.296V398.585Z" stroke="black"/>
<path d="M423.296 401.904C423.296 431.229 399.474 455.004 370.093 455.004V401.904" stroke="black" stroke-miterlimit="10"/>
<path d="M522.386 398.585H455.883V405.223H522.386V398.585Z" stroke="black"/>
<path d="M489.134 401.904H455.883V402.568H489.134V401.904Z" stroke="black"/>
<path d="M505.76 401.24H472.509V401.904H505.76V401.24Z" stroke="black"/>
<path d="M455.883 398.585H423.296V405.223H455.883V398.585Z" fill="black" stroke="black"/>
<path d="M427.951 6.96942H361.448V0.331867H427.951V6.96942Z" stroke="black"/>
<path d="M361.448 3.65063H427.951" stroke="black" stroke-miterlimit="10"/>
<path d="M145.976 6.97607H79.4719V0.33852H145.976V6.97607Z" stroke="black"/>
<path d="M79.4719 3.65729H145.976" stroke="black" stroke-miterlimit="10"/>
<path d="M216.469 6.97607H149.966V0.33852H216.469V6.97607Z" stroke="black"/>
<path d="M149.966 3.65729H216.469" stroke="black" stroke-miterlimit="10"/>
<path d="M286.963 6.97607H220.46V0.33852H286.963V6.97607Z" stroke="black"/>
<path d="M220.46 3.65729H286.963" stroke="black" stroke-miterlimit="10"/>
<path d="M357.457 6.97607H290.954V0.33852H357.457V6.97607Z" stroke="black"/>
<path d="M290.954 3.65729H357.457" stroke="black" stroke-miterlimit="10"/>
<path d="M498.445 6.96942H431.941V0.331867H498.445V6.96942Z" stroke="black"/>
<path d="M431.941 3.65063H498.445" stroke="black" stroke-miterlimit="10"/>
<path d="M74.1128 172.5L87.9806 183.263C90.0826 184.779 91.0889 187.397 90.5387 189.927C86.0902 196.019 80.7152 201.384 74.6113 205.824C72.0767 206.373 69.4526 205.369 67.9384 203.266L57.1555 189.425C56.0834 187.773 56.5066 185.257 58.1807 183.277L67.9478 173.528C69.9323 171.857 72.4528 171.435 74.1128 172.5ZM57.7622 183.694L51.8652 183.084ZM60.6965 180.766L56.1022 177.935ZM64.214 177.255L61.6747 172.374ZM67.1484 174.326L66.8286 168.15ZM67.882 167.446C61.6088 172.026 56.0458 177.579 51.4561 183.84L47.0545 184.14C52.5988 175.8 59.8266 168.586 68.183 163.052L67.882 167.446Z" fill="white"/>
<path d="M57.7622 183.694L51.8652 183.084M60.6965 180.766L56.1022 177.935M64.214 177.255L61.6747 172.374M67.1484 174.326L66.8286 168.15M74.1128 172.5L87.9806 183.263C90.0826 184.779 91.0889 187.397 90.5387 189.927C86.0902 196.019 80.7152 201.384 74.6113 205.824C72.0767 206.373 69.4526 205.369 67.9384 203.266L57.1555 189.425C56.0834 187.773 56.5066 185.257 58.1807 183.277L67.9478 173.528C69.9323 171.857 72.4528 171.435 74.1128 172.5ZM67.882 167.446C61.6088 172.026 56.0458 177.579 51.4561 183.84L47.0545 184.14C52.5988 175.8 59.8266 168.586 68.183 163.052L67.882 167.446Z" stroke="black" stroke-miterlimit="10" stroke-linejoin="round"/>
<path d="M107.957 138.502L121.824 149.264C123.926 150.78 124.933 153.389 124.387 155.924C119.934 162.021 114.559 167.385 108.455 171.825C105.916 172.37 103.296 171.37 101.782 169.267L90.9993 155.426C89.9318 153.769 90.3503 151.258 92.0291 149.273L101.792 139.529C103.776 137.859 106.297 137.436 107.957 138.502ZM91.6059 149.696L85.7089 149.085ZM94.5403 146.767L89.9459 143.937ZM98.0624 143.251L95.5184 138.375ZM100.997 140.323L100.672 134.151ZM101.726 133.447C95.4526 138.028 89.8895 143.58 85.2998 149.841L80.8935 150.137C86.4425 141.801 93.6703 134.587 102.022 129.049L101.726 133.447Z" fill="white"/>
<path d="M91.6059 149.696L85.7089 149.085M94.5403 146.767L89.9459 143.937M98.0624 143.251L95.5184 138.375M100.997 140.323L100.672 134.151M107.957 138.502L121.824 149.264C123.926 150.78 124.933 153.389 124.387 155.924C119.934 162.021 114.559 167.385 108.455 171.825C105.916 172.37 103.296 171.37 101.782 169.267L90.9993 155.426C89.9318 153.769 90.3503 151.258 92.0291 149.273L101.792 139.529C103.776 137.859 106.297 137.436 107.957 138.502ZM101.726 133.447C95.4526 138.028 89.8895 143.58 85.2998 149.841L80.8935 150.137C86.4425 141.801 93.6703 134.587 102.022 129.049L101.726 133.447Z" stroke="black" stroke-miterlimit="10" stroke-linejoin="round"/>
<path d="M92.0818 174L58.2236 207.793L77.0337 226.567L110.892 192.774L92.0818 174Z" fill="white" stroke="black"/>
<path d="M61.9856 204.038L58.2236 207.793L60.857 210.421L64.6191 206.666L61.9856 204.038Z" fill="white" stroke="black"/>
<path d="M78.1624 220.184L74.4004 223.938L77.0338 226.567L80.7958 222.812L78.1624 220.184Z" fill="white" stroke="black"/>
<path d="M92.077 174.005L88.3149 177.759L90.9483 180.388L94.7104 176.633L92.077 174.005Z" fill="white" stroke="black"/>
<path d="M108.254 190.15L104.492 193.905L107.125 196.533L110.887 192.779L108.254 190.15Z" fill="white" stroke="black"/>
<path d="M125.999 140L92.1406 173.793L110.951 192.567L144.809 158.774L125.999 140Z" fill="white" stroke="black"/>
<path d="M95.9026 170.038L92.1406 173.793L94.774 176.421L98.536 172.666L95.9026 170.038Z" fill="white" stroke="black"/>
<path d="M112.079 186.184L108.317 189.938L110.951 192.567L114.713 188.812L112.079 186.184Z" fill="white" stroke="black"/>
<path d="M125.994 140.005L122.232 143.759L124.865 146.388L128.627 142.633L125.994 140.005Z" fill="white" stroke="black"/>
<path d="M142.171 156.15L138.409 159.905L141.042 162.533L144.804 158.779L142.171 156.15Z" fill="white" stroke="black"/>
<path d="M231.073 228.501L248.504 226.323C251.064 225.905 253.631 227.047 255.035 229.224C256.205 236.671 256.205 244.258 255.035 251.705C253.631 253.889 251.064 255.024 248.504 254.613L231.073 252.436C229.145 252.017 227.662 249.94 227.442 247.358V233.578C227.662 230.99 229.145 228.912 231.073 228.501ZM227.442 247.949L222.84 251.679ZM227.442 243.807L222.188 245.048ZM227.442 238.842L222.188 237.189ZM227.442 234.7L222.84 230.558ZM223.086 229.317C221.896 236.99 221.896 244.836 223.086 252.509L220.187 255.821C218.198 246.01 218.198 235.815 220.187 226.005L223.086 229.317Z" fill="white"/>
<path d="M227.442 247.949L222.84 251.679M227.442 243.807L222.188 245.048M227.442 238.842L222.188 237.189M227.442 234.7L222.84 230.558M231.073 228.501L248.504 226.323C251.064 225.905 253.631 227.047 255.035 229.224C256.205 236.671 256.205 244.258 255.035 251.705C253.631 253.889 251.064 255.024 248.504 254.613L231.073 252.436C229.145 252.017 227.662 249.94 227.442 247.358V233.578C227.662 230.99 229.145 228.912 231.073 228.501ZM223.086 229.317C221.896 236.99 221.896 244.836 223.086 252.509L220.187 255.821C218.198 246.01 218.198 235.815 220.187 226.005L223.086 229.317Z" stroke="black" stroke-miterlimit="10" stroke-linejoin="round"/>
<path d="M231.073 180.644L248.497 178.467C251.057 178.048 253.625 179.19 255.034 181.367C256.205 188.815 256.205 196.401 255.034 203.849C253.625 206.032 251.057 207.167 248.497 206.756L231.073 204.579C229.145 204.161 227.661 202.083 227.442 199.501V185.721C227.661 183.133 229.145 181.055 231.073 180.644ZM227.442 200.092L222.84 203.822ZM227.442 195.95L222.182 197.191ZM227.442 190.985L222.182 189.332ZM227.442 186.843L222.84 182.701ZM223.086 181.46C221.889 189.133 221.889 196.979 223.086 204.652L220.18 207.964C218.191 198.154 218.191 187.958 220.18 178.148L223.086 181.46Z" fill="white"/>
<path d="M227.442 200.092L222.84 203.822M227.442 195.95L222.182 197.191M227.442 190.985L222.182 189.332M227.442 186.843L222.84 182.701M231.073 180.644L248.497 178.467C251.057 178.048 253.625 179.19 255.034 181.367C256.205 188.815 256.205 196.401 255.034 203.849C253.625 206.032 251.057 207.167 248.497 206.756L231.073 204.579C229.145 204.161 227.661 202.083 227.442 199.501V185.721C227.661 183.133 229.145 181.055 231.073 180.644ZM223.086 181.46C221.889 189.133 221.889 196.979 223.086 204.652L220.18 207.964C218.191 198.154 218.191 187.958 220.18 178.148L223.086 181.46Z" stroke="black" stroke-miterlimit="10" stroke-linejoin="round"/>
<path d="M244.986 216.964V264.755H271.587V216.964H244.986Z" fill="white" stroke="black"/>
<path d="M244.986 259.445V264.755H248.71V259.445H244.986Z" fill="white" stroke="black"/>
<path d="M267.863 259.445V264.755H271.587V259.445H267.863Z" fill="white" stroke="black"/>
<path d="M244.986 216.971V222.281H248.71V216.971H244.986Z" fill="white" stroke="black"/>
<path d="M267.863 216.971V222.281H271.587V216.971H267.863Z" fill="white" stroke="black"/>
<path d="M244.986 169.174V216.964H271.587V169.174H244.986Z" fill="white" stroke="black"/>
<path d="M244.986 211.654V216.964H248.71V211.654H244.986Z" fill="white" stroke="black"/>
<path d="M267.863 211.654V216.964H271.587V211.654H267.863Z" fill="white" stroke="black"/>
<path d="M244.986 169.181V174.491H248.71V169.181H244.986Z" fill="white" stroke="black"/>
<path d="M267.863 169.181V174.491H271.587V169.181H267.863Z" fill="white" stroke="black"/>
<path d="M312.999 205.375L295.575 207.552C293.015 207.964 290.448 206.829 289.038 204.652C287.867 197.198 287.867 189.618 289.038 182.164C290.448 179.987 293.015 178.852 295.575 179.263L312.999 181.44C314.928 181.858 316.411 183.929 316.63 186.518V200.298C316.411 202.886 314.928 204.957 312.999 205.375ZM316.63 185.921L321.232 182.197ZM316.63 190.062L321.891 188.821ZM316.63 195.034L321.891 196.687ZM316.63 199.176L321.232 203.318ZM320.986 204.559C322.183 196.886 322.183 189.034 320.986 181.367L323.892 178.055C325.881 187.865 325.881 198.061 323.892 207.871L320.986 204.559Z" fill="white"/>
<path d="M316.63 185.921L321.232 182.197M316.63 190.062L321.891 188.821M316.63 195.034L321.891 196.687M316.63 199.176L321.232 203.318M312.999 205.375L295.575 207.552C293.015 207.964 290.448 206.829 289.038 204.652C287.867 197.198 287.867 189.618 289.038 182.164C290.448 179.987 293.015 178.852 295.575 179.263L312.999 181.44C314.928 181.858 316.411 183.929 316.63 186.518V200.298C316.411 202.886 314.928 204.957 312.999 205.375ZM320.986 204.559C322.183 196.886 322.183 189.034 320.986 181.367L323.892 178.055C325.881 187.865 325.881 198.061 323.892 207.871L320.986 204.559Z" stroke="black" stroke-miterlimit="10" stroke-linejoin="round"/>
<path d="M312.999 253.232L295.568 255.409C293.008 255.821 290.441 254.686 289.038 252.509C287.867 245.055 287.867 237.474 289.038 230.021C290.441 227.843 293.008 226.708 295.568 227.12L312.999 229.297C314.928 229.715 316.411 231.786 316.63 234.375V248.154C316.411 250.743 314.928 252.814 312.999 253.232ZM316.63 233.777L321.232 230.054ZM316.63 237.919L321.884 236.678ZM316.63 242.891L321.884 244.543ZM316.63 247.033L321.232 251.174ZM320.986 252.416C322.176 244.743 322.176 236.89 320.986 229.224L323.886 225.912C325.874 235.722 325.874 245.917 323.886 255.728L320.986 252.416Z" fill="white"/>
<path d="M316.63 233.777L321.232 230.054M316.63 237.919L321.884 236.678M316.63 242.891L321.884 244.543M316.63 247.033L321.232 251.174M312.999 253.232L295.568 255.409C293.008 255.821 290.441 254.686 289.038 252.509C287.867 245.055 287.867 237.474 289.038 230.021C290.441 227.843 293.008 226.708 295.568 227.12L312.999 229.297C314.928 229.715 316.411 231.786 316.63 234.375V248.154C316.411 250.743 314.928 252.814 312.999 253.232ZM320.986 252.416C322.176 244.743 322.176 236.89 320.986 229.224L323.886 225.912C325.874 235.722 325.874 245.917 323.886 255.728L320.986 252.416Z" stroke="black" stroke-miterlimit="10" stroke-linejoin="round"/>
<path d="M299.087 216.971V169.181H272.485V216.971H299.087Z" fill="white" stroke="black"/>
<path d="M299.087 174.491V169.181H295.362V174.491H299.087Z" fill="white" stroke="black"/>
<path d="M276.209 174.491V169.181H272.485V174.491H276.209Z" fill="white" stroke="black"/>
<path d="M299.087 216.971V211.661H295.362V216.971H299.087Z" fill="white" stroke="black"/>
<path d="M276.209 216.971V211.661H272.485V216.971H276.209Z" fill="white" stroke="black"/>
<path d="M299.087 264.762V216.971H272.485V264.762H299.087Z" fill="white" stroke="black"/>
<path d="M299.087 222.281V216.971H295.362V222.281H299.087Z" fill="white" stroke="black"/>
<path d="M276.209 222.281V216.971H272.485V222.281H276.209Z" fill="white" stroke="black"/>
<path d="M299.087 264.762V259.451H295.362V264.762H299.087Z" fill="white" stroke="black"/>
<path d="M276.209 264.762V259.451H272.485V264.762H276.209Z" fill="white" stroke="black"/>
<path d="M231.074 278.05L248.497 275.873C251.065 275.455 253.625 276.596 255.035 278.773C256.205 286.221 256.205 293.807 255.035 301.261C253.625 303.439 251.065 304.574 248.497 304.162L231.074 301.985C229.145 301.567 227.662 299.489 227.442 296.907V283.128C227.662 280.539 229.145 278.468 231.074 278.05ZM227.442 297.505L222.84 301.228ZM227.442 293.363L222.189 294.604ZM227.442 288.391L222.189 286.738ZM227.442 284.249L222.84 280.108ZM223.086 278.866C221.889 286.539 221.889 294.385 223.086 302.058L220.18 305.37C218.198 295.56 218.198 285.365 220.18 275.554L223.086 278.866Z" fill="white"/>
<path d="M227.442 297.505L222.84 301.228M227.442 293.363L222.189 294.604M227.442 288.391L222.189 286.738M227.442 284.249L222.84 280.108M231.074 278.05L248.497 275.873C251.065 275.455 253.625 276.596 255.035 278.773C256.205 286.221 256.205 293.807 255.035 301.261C253.625 303.439 251.065 304.574 248.497 304.162L231.074 301.985C229.145 301.567 227.662 299.489 227.442 296.907V283.128C227.662 280.539 229.145 278.468 231.074 278.05ZM223.086 278.866C221.889 286.539 221.889 294.385 223.086 302.058L220.18 305.37C218.198 295.56 218.198 285.365 220.18 275.554L223.086 278.866Z" stroke="black" stroke-miterlimit="10" stroke-linejoin="round"/>
<path d="M244.986 266.587V314.377H271.587V266.587H244.986Z" fill="white" stroke="black"/>
<path d="M244.986 309.067V314.377H248.71V309.067H244.986Z" fill="white" stroke="black"/>
<path d="M267.863 309.067V314.377H271.587V309.067H267.863Z" fill="white" stroke="black"/>
<path d="M244.986 266.587V271.897H248.71V266.587H244.986Z" fill="white" stroke="black"/>
<path d="M267.863 266.587V271.897H271.587V266.587H267.863Z" fill="white" stroke="black"/>
<path d="M312.999 302.781L295.575 304.959C293.008 305.37 290.448 304.235 289.038 302.058C287.867 294.604 287.867 287.017 289.038 279.57C290.448 277.393 293.008 276.251 295.575 276.669L312.999 278.846C314.928 279.265 316.411 281.335 316.63 283.924V297.704C316.411 300.286 314.928 302.363 312.999 302.781ZM316.63 283.327L321.232 279.596ZM316.63 287.469L321.884 286.227ZM316.63 292.44L321.884 294.093ZM316.63 296.582L321.232 300.724ZM320.986 301.958C322.183 294.292 322.183 286.44 320.986 278.773L323.892 275.455C325.874 285.272 325.874 295.467 323.892 305.277L320.986 301.958Z" fill="white"/>
<path d="M316.63 283.327L321.232 279.596M316.63 287.469L321.884 286.227M316.63 292.44L321.884 294.093M316.63 296.582L321.232 300.724M312.999 302.781L295.575 304.959C293.008 305.37 290.448 304.235 289.038 302.058C287.867 294.604 287.867 287.017 289.038 279.57C290.448 277.393 293.008 276.251 295.575 276.669L312.999 278.846C314.928 279.265 316.411 281.335 316.63 283.924V297.704C316.411 300.286 314.928 302.363 312.999 302.781ZM320.986 301.958C322.183 294.292 322.183 286.44 320.986 278.773L323.892 275.455C325.874 285.272 325.874 295.467 323.892 305.277L320.986 301.958Z" stroke="black" stroke-miterlimit="10" stroke-linejoin="round"/>
<path d="M299.087 314.377V266.587H272.485V314.377H299.087Z" fill="white" stroke="black"/>
<path d="M299.087 271.897V266.587H295.362V271.897H299.087Z" fill="white" stroke="black"/>
<path d="M276.209 271.897V266.587H272.485V271.897H276.209Z" fill="white" stroke="black"/>
<path d="M299.087 314.377V309.067H295.362V314.377H299.087Z" fill="white" stroke="black"/>
<path d="M276.209 314.377V309.067H272.485V314.377H276.209Z" fill="white" stroke="black"/>
<path d="M232.317 76.547L249.741 74.3698C252.301 73.9517 254.868 75.0933 256.278 77.2705C257.449 84.7178 257.449 92.3045 256.278 99.7585C254.868 101.936 252.301 103.071 249.741 102.659L232.317 100.482C230.388 100.064 228.905 97.9863 228.686 95.4042V81.6247C228.905 79.036 230.388 76.9651 232.317 76.547ZM228.686 96.0016L224.084 99.7253ZM228.686 91.8598L223.425 93.0944ZM228.686 86.8883L223.425 85.2355ZM228.686 82.7464L224.084 78.6046ZM224.33 77.3634C223.133 85.0364 223.133 92.882 224.33 100.555L221.423 103.867C219.435 94.0568 219.435 83.8615 221.423 74.0512L224.33 77.3634Z" fill="white"/>
<path d="M228.686 96.0016L224.084 99.7253M228.686 91.8598L223.425 93.0944M228.686 86.8883L223.425 85.2355M228.686 82.7464L224.084 78.6046M232.317 76.547L249.741 74.3698C252.301 73.9517 254.868 75.0933 256.278 77.2705C257.449 84.7178 257.449 92.3045 256.278 99.7585C254.868 101.936 252.301 103.071 249.741 102.659L232.317 100.482C230.388 100.064 228.905 97.9863 228.686 95.4042V81.6247C228.905 79.036 230.388 76.9651 232.317 76.547ZM224.33 77.3634C223.133 85.0364 223.133 92.882 224.33 100.555L221.423 103.867C219.435 94.0568 219.435 83.8615 221.423 74.0512L224.33 77.3634Z" stroke="black" stroke-miterlimit="10" stroke-linejoin="round"/>
<path d="M246.229 65.0109V112.801H272.831V65.0109H246.229Z" fill="white" stroke="black"/>
<path d="M246.229 107.491V112.801H249.954V107.491H246.229Z" fill="white" stroke="black"/>
<path d="M269.107 107.491V112.801H272.831V107.491H269.107Z" fill="white" stroke="black"/>
<path d="M246.229 65.0109V70.3209H249.954V65.0109H246.229Z" fill="white" stroke="black"/>
<path d="M269.107 65.0109V70.3209H272.831V65.0109H269.107Z" fill="white" stroke="black"/>
<path d="M312.254 101.272L294.83 103.449C292.27 103.867 289.703 102.726 288.293 100.548C287.123 93.1011 287.123 85.5143 288.293 78.067C289.703 75.8899 292.27 74.7482 294.83 75.1664L312.254 77.3369C314.183 77.755 315.666 79.8326 315.885 82.4146V96.2008C315.666 98.7828 314.183 100.86 312.254 101.272ZM315.885 81.8239L320.488 78.0935ZM315.885 85.9657L321.146 84.7245ZM315.885 90.9306L321.146 92.5833ZM315.885 95.0724L320.488 99.2143ZM320.241 100.455C321.439 92.7891 321.439 84.9369 320.241 77.2639L323.148 73.9517C325.129 83.762 325.129 93.9573 323.148 103.768L320.241 100.455Z" fill="white"/>
<path d="M315.885 81.8239L320.488 78.0935M315.885 85.9657L321.146 84.7245M315.885 90.9306L321.146 92.5833M315.885 95.0724L320.488 99.2143M312.254 101.272L294.83 103.449C292.27 103.867 289.703 102.726 288.293 100.548C287.123 93.1011 287.123 85.5143 288.293 78.067C289.703 75.8899 292.27 74.7482 294.83 75.1664L312.254 77.3369C314.183 77.755 315.666 79.8326 315.885 82.4146V96.2008C315.666 98.7828 314.183 100.86 312.254 101.272ZM320.241 100.455C321.439 92.7891 321.439 84.9369 320.241 77.2639L323.148 73.9517C325.129 83.762 325.129 93.9573 323.148 103.768L320.241 100.455Z" stroke="black" stroke-miterlimit="10" stroke-linejoin="round"/>
<path d="M298.342 112.795V65.0043H271.74V112.795H298.342Z" fill="white" stroke="black"/>
<path d="M298.342 70.3143V65.0043H294.618V70.3143H298.342Z" fill="white" stroke="black"/>
<path d="M275.464 70.3143V65.0043H271.74V70.3143H275.464Z" fill="white" stroke="black"/>
<path d="M298.342 112.795V107.485H294.618V112.795H298.342Z" fill="white" stroke="black"/>
<path d="M275.464 112.795V107.485H271.74V112.795H275.464Z" fill="white" stroke="black"/>
<path d="M453.298 156.054L442.515 169.895C441.001 171.998 438.377 173.002 435.842 172.453C429.738 168.013 424.363 162.648 419.915 156.556C419.36 154.022 420.371 151.407 422.473 149.891L436.341 139.129C438.001 138.064 440.521 138.486 442.506 140.157L452.268 149.901C453.947 151.886 454.37 154.402 453.298 156.054ZM442.087 139.74L442.699 133.854ZM445.022 142.668L447.857 138.083ZM448.539 146.179L453.425 143.64ZM451.473 149.108L457.662 148.789ZM458.367 149.84C453.773 143.574 448.215 138.026 441.937 133.441L441.641 129.053C449.997 134.586 457.22 141.795 462.764 150.136L458.367 149.84Z" fill="white"/>
<path d="M442.087 139.74L442.699 133.854M445.022 142.668L447.857 138.083M448.539 146.179L453.425 143.64M451.473 149.108L457.662 148.789M453.298 156.054L442.515 169.895C441.001 171.998 438.377 173.002 435.842 172.453C429.738 168.013 424.363 162.648 419.915 156.556C419.36 154.022 420.371 151.407 422.473 149.891L436.341 139.129C438.001 138.064 440.521 138.486 442.506 140.157L452.268 149.901C453.947 151.886 454.37 154.402 453.298 156.054ZM458.367 149.84C453.773 143.574 448.215 138.026 441.937 133.441L441.641 129.053C449.997 134.586 457.22 141.795 462.764 150.136L458.367 149.84Z" stroke="black" stroke-miterlimit="10" stroke-linejoin="round"/>
<path d="M487.073 190.059L476.286 203.895C474.771 205.998 472.147 207.002 469.613 206.453C463.509 202.013 458.134 196.648 453.685 190.556C453.135 188.026 454.142 185.407 456.248 183.896L470.111 173.129C471.767 172.069 474.292 172.486 476.272 174.162L486.039 183.91C487.718 185.886 488.136 188.407 487.073 190.059ZM475.853 173.744L476.469 167.854ZM478.787 176.673L481.628 172.083ZM482.305 180.184L487.196 177.64ZM485.239 183.112L491.433 182.789ZM492.138 183.84C487.548 177.579 481.985 172.026 475.707 167.441L475.411 163.053C483.767 168.586 490.99 175.795 496.535 184.136L492.138 183.84Z" fill="white"/>
<path d="M475.853 173.744L476.469 167.854M478.787 176.673L481.628 172.083M482.305 180.184L487.196 177.64M485.239 183.112L491.433 182.789M487.073 190.059L476.286 203.895C474.771 205.998 472.147 207.002 469.613 206.453C463.509 202.013 458.134 196.648 453.685 190.556C453.135 188.026 454.142 185.407 456.248 183.896L470.111 173.129C471.767 172.069 474.292 172.486 476.272 174.162L486.039 183.91C487.718 185.886 488.136 188.407 487.073 190.059ZM492.138 183.84C487.548 177.579 481.985 172.026 475.707 167.441L475.411 163.053C483.767 168.586 490.99 175.795 496.535 184.136L492.138 183.84Z" stroke="black" stroke-miterlimit="10" stroke-linejoin="round"/>
<path d="M451.668 173.793L417.81 140L399 158.774L432.858 192.567L451.668 173.793Z" fill="white" stroke="black"/>
<path d="M421.572 143.755L417.81 140L415.177 142.628L418.939 146.383L421.572 143.755Z" fill="white" stroke="black"/>
<path d="M405.395 159.9L401.633 156.146L399 158.774L402.762 162.529L405.395 159.9Z" fill="white" stroke="black"/>
<path d="M451.663 173.788L447.901 170.033L445.268 172.662L449.03 176.417L451.663 173.788Z" fill="white" stroke="black"/>
<path d="M435.487 189.934L431.725 186.179L429.091 188.807L432.853 192.562L435.487 189.934Z" fill="white" stroke="black"/>
<path d="M485.514 207.793L451.656 174L432.846 192.774L466.704 226.567L485.514 207.793Z" fill="white" stroke="black"/>
<path d="M455.418 177.755L451.656 174L449.022 176.628L452.784 180.383L455.418 177.755Z" fill="white" stroke="black"/>
<path d="M439.241 193.9L435.479 190.146L432.846 192.774L436.608 196.529L439.241 193.9Z" fill="white" stroke="black"/>
<path d="M485.509 207.788L481.747 204.033L479.114 206.662L482.876 210.417L485.509 207.788Z" fill="white" stroke="black"/>
<path d="M469.333 223.934L465.571 220.179L462.937 222.807L466.699 226.562L469.333 223.934Z" fill="white" stroke="black"/>
</g>
<defs>
<clipPath id="clip0_963_361">
<rect width="544" height="456" fill="white"/>
</clipPath>
</defs>
</svg>
